{
  "asset": {
    "version": "2.0",
    "generator": "camina box interior"
  },
  "scene": 0,
  "scenes": [
    {
      "name": "room",
      "nodes": [
        0
      ]
    }
  ],
  "nodes": [
    {
      "name": "room",
      "mesh": 0
    }
  ],
  "meshes": [
    {
      "name": "room",
      "primitives": [
        {
          "attributes": {
            "POSITION": 0,
            "NORMAL": 1,
            "TEXCOORD_0": 2
          },
          "indices": 3,
          "material": 0
        },
        {
          "attributes": {
            "POSITION": 0,
            "NORMAL": 1,
            "TEXCOORD_0": 2
          },
          "indices": 4,
          "material": 1
        },
        {
          "attributes": {
            "POSITION": 0,
            "NORMAL": 1,
            "TEXCOORD_0": 2
          },
          "indices": 5,
          "material": 2
        },
        {
          "attributes": {
            "POSITION": 0,
            "NORMAL": 1,
            "TEXCOORD_0": 2
          },
          "indices": 6,
          "material": 3
        },
        {
          "attributes": {
            "POSITION": 0,
            "NORMAL": 1,
            "TEXCOORD_0": 2
          },
          "indices": 7,
          "material": 4
        }
      ]
    }
  ],
  "materials": [
    {
      "name": "floor",
      "pbrMetallicRoughness": {
        "baseColorFactor": [
          0.73,
          0.72,
          0.70,
          1.0
        ],
        "metallicFactor": 0.0,
        "roughnessFactor": 0.85
      }
    },
    {
      "name": "ceiling",
      "pbrMetallicRoughness": {
        "baseColorFactor": [
          0.82,
          0.82,
          0.80,
          1.0
        ],
        "metallicFactor": 0.0,
        "roughnessFactor": 0.95
      }
    },
    {
      "name": "back wall",
      "pbrMetallicRoughness": {
        "baseColorFactor": [
          0.70,
          0.70,
          0.72,
          1.0
        ],
        "metallicFactor": 0.0,
        "roughnessFactor": 0.9
      }
    },
    {
      "name": "left wall",
      "pbrMetallicRoughness": {
        "baseColorFactor": [
          0.62,
          0.11,
          0.11,
          1.0
        ],
        "metallicFactor": 0.0,
        "roughnessFactor": 0.9
      }
    },
    {
      "name": "right wall",
      "pbrMetallicRoughness": {
        "baseColorFactor": [
          0.11,
          0.48,
          0.17,
          1.0
        ],
        "metallicFactor": 0.0,
        "roughnessFactor": 0.9
      }
    }
  ],
  "buffers": [
    {
      "byteLength": 700,
      "uri": "data:application/octet-stream;base64,"
    }
  ],
  "bufferViews": [
    {
      "buffer": 0,
      "byteOffset": 0,
      "byteLength": 240,
      "target": 34962
    },
    {
      "buffer": 0,
      "byteOffset": 240,
      "byteLength": 240,
      "target": 34962
    },
    {
      "buffer": 0,
      "byteOffset": 480,
      "byteLength": 160,
      "target": 34962
    },
    {
      "buffer": 0,
      "byteOffset": 640,
      "byteLength": 60,
      "target": 34963
    }
  ],
  "accessors": [
    {
      "bufferView": 0,
      "componentType": 5126,
      "count": 20,
      "type": "VEC3",
      "min": [
        -6.0,
        0.0,
        -8.0
      ],
      "max": [
        6.0,
        7.5,
        8.0
      ]
    },
    {
      "bufferView": 1,
      "componentType": 5126,
      "count": 20,
      "type": "VEC3"
    },
    {
      "bufferView": 2,
      "componentType": 5126,
      "count": 20,
      "type": "VEC2"
    },
    {
      "bufferView": 3,
      "byteOffset": 0,
      "componentType": 5123,
      "count": 6,
      "type": "SCALAR"
    },
    {
      "bufferView": 3,
      "byteOffset": 12,
      "componentType": 5123,
      "count": 6,
      "type": "SCALAR"
    },
    {
      "bufferView": 3,
      "byteOffset": 24,
      "componentType": 5123,
      "count": 6,
      "type": "SCALAR"
    },
    {
      "bufferView": 3,
      "byteOffset": 36,
      "componentType": 5123,
      "count": 6,
      "type": "SCALAR"
    },
    {
      "bufferView": 3,
      "byteOffset": 48,
      "componentType": 5123,
      "count": 6,
      "type": "SCALAR"
    }
  ]
}
